<svg width="200" height="230" viewBox="0 0 200 230" fill="none" xmlns="http://www.w3.org/2000/svg">
<rect width="200" height="200" rx="6" fill="#98F1D1"/>
<rect x="18.1016" y="42.6543" width="165.745" height="45.3993" rx="7.79977" fill="white"/>
<path d="M34.7004 70.854V62.7081H33.2087V60.6607H36.9526V70.854H34.7004Z" fill="black"/>
<path d="M48.6791 62.354V57.098H46.9781V56.081H51.5051V57.098H49.8041V62.354H48.6791ZM52.3024 62.354V56.081H53.3734V58.448C53.5714 58.025 54.0574 57.728 54.6964 57.728C55.7494 57.728 56.3524 58.43 56.3524 59.546V62.354H55.2814V59.699C55.2814 59.087 54.9484 58.691 54.3724 58.691C53.7874 58.691 53.3734 59.123 53.3734 59.744V62.354H52.3024ZM57.2372 60.122V60.086C57.2372 58.628 58.2542 57.692 59.6132 57.692C60.9632 57.692 61.8542 58.709 61.8542 59.978C61.8542 59.978 61.8542 60.176 61.8362 60.356H58.3082C58.3442 61.076 58.8752 61.544 59.6762 61.544C60.2252 61.544 60.5582 61.364 60.9002 61.022L61.5482 61.652C60.9632 62.273 60.3242 62.462 59.6402 62.462C58.2182 62.462 57.2372 61.544 57.2372 60.122ZM58.3352 59.6H60.7562C60.7562 59.06 60.2432 58.61 59.6132 58.61C58.9382 58.61 58.3802 59.051 58.3352 59.6ZM64.8538 61.553L65.5468 60.968C65.7358 61.274 66.1588 61.535 66.7438 61.535C67.3648 61.535 67.5538 61.274 67.5538 61.04C67.5538 60.662 67.0138 60.572 66.3118 60.32C65.6458 60.077 65.1958 59.735 65.1958 59.042C65.1958 58.169 65.9338 57.683 66.7978 57.683C67.5538 57.683 68.0578 57.971 68.3728 58.367L67.7698 59.006C67.5808 58.781 67.2748 58.61 66.7798 58.61C66.4378 58.61 66.2308 58.772 66.2308 59.015C66.2308 59.357 66.6088 59.402 67.3738 59.681C68.2108 59.978 68.5888 60.374 68.5888 61.031C68.5888 61.814 68.0218 62.471 66.7258 62.471C65.7808 62.471 65.1328 62.093 64.8538 61.553ZM69.3971 64.091V57.818H70.4771V58.475C70.6301 58.052 71.1611 57.719 71.9261 57.719C73.2041 57.719 74.1941 58.745 74.1941 60.086C74.1941 61.427 73.2041 62.453 71.9261 62.453C71.1611 62.453 70.6301 62.12 70.4771 61.697V64.091H69.3971ZM70.3961 60.086C70.3961 60.878 70.9991 61.472 71.7821 61.472C72.5471 61.472 73.1231 60.878 73.1231 60.086C73.1231 59.294 72.5471 58.7 71.7821 58.7C70.9991 58.7 70.3961 59.294 70.3961 60.086ZM75.6237 57.287C75.2727 57.287 74.9757 57.008 74.9757 56.648C74.9757 56.288 75.2727 56.009 75.6237 56.009C75.9657 56.009 76.2627 56.288 76.2627 56.648C76.2627 57.008 75.9657 57.287 75.6237 57.287ZM75.0837 62.354V57.818H76.1637V62.354H75.0837ZM77.2634 62.354V57.818H78.3344V58.466C78.5414 58.034 79.0544 57.728 79.7114 57.728C80.8004 57.728 81.4304 58.43 81.4304 59.546V62.354H80.3504V59.699C80.3504 59.087 79.9994 58.691 79.3874 58.691C78.7754 58.691 78.3344 59.123 78.3344 59.744V62.354H77.2634ZM82.2861 60.086C82.2861 58.745 83.2761 57.719 84.5541 57.719C85.3191 57.719 85.8501 58.052 86.0031 58.475V56.081H87.0831V62.354H86.0031V61.697C85.8501 62.12 85.3191 62.453 84.5541 62.453C83.2761 62.453 82.2861 61.427 82.2861 60.086ZM83.3571 60.086C83.3571 60.878 83.9331 61.472 84.6981 61.472C85.4811 61.472 86.0841 60.878 86.0841 60.086C86.0841 59.294 85.4811 58.7 84.6981 58.7C83.9331 58.7 83.3571 59.294 83.3571 60.086ZM88.1526 61.013V56.081H89.2326V60.869C89.2326 61.31 89.3766 61.499 89.7726 61.499C89.8716 61.499 89.9976 61.49 90.0966 61.463V62.426C89.9706 62.462 89.7726 62.48 89.5836 62.48C88.9986 62.48 88.1526 62.318 88.1526 61.013ZM90.5741 60.122V60.086C90.5741 58.628 91.5911 57.692 92.9501 57.692C94.3001 57.692 95.1911 58.709 95.1911 59.978C95.1911 59.978 95.1911 60.176 95.1731 60.356H91.6451C91.6811 61.076 92.2121 61.544 93.0131 61.544C93.5621 61.544 93.8951 61.364 94.2371 61.022L94.8851 61.652C94.3001 62.273 93.6611 62.462 92.9771 62.462C91.5551 62.462 90.5741 61.544 90.5741 60.122ZM91.6721 59.6H94.0931C94.0931 59.06 93.5801 58.61 92.9501 58.61C92.2751 58.61 91.7171 59.051 91.6721 59.6ZM98.9314 62.354V58.799H98.1934V57.818H98.9314V57.593C98.9314 56.882 99.0934 56.522 99.4264 56.252C99.7684 55.973 100.2 55.955 100.551 55.955C100.713 55.955 100.92 55.973 101.019 55.991V56.918C100.893 56.873 100.74 56.873 100.605 56.873C100.2 56.873 100.011 57.044 100.011 57.512V57.818H100.866V58.799H100.011V62.354H98.9314ZM102.272 57.287C101.921 57.287 101.624 57.008 101.624 56.648C101.624 56.288 101.921 56.009 102.272 56.009C102.614 56.009 102.911 56.288 102.911 56.648C102.911 57.008 102.614 57.287 102.272 57.287ZM101.732 62.354V57.818H102.812V62.354H101.732ZM103.912 62.354V56.081H104.992V58.475C105.145 58.052 105.676 57.719 106.441 57.719C107.719 57.719 108.709 58.745 108.709 60.086C108.709 61.427 107.719 62.453 106.441 62.453C105.676 62.453 105.145 62.12 104.992 61.697V62.354H103.912ZM104.911 60.086C104.911 60.878 105.514 61.472 106.297 61.472C107.062 61.472 107.638 60.878 107.638 60.086C107.638 59.294 107.062 58.7 106.297 58.7C105.514 58.7 104.911 59.294 104.911 60.086ZM109.4 60.122V60.086C109.4 58.628 110.417 57.692 111.776 57.692C113.126 57.692 114.017 58.709 114.017 59.978C114.017 59.978 114.017 60.176 113.999 60.356H110.471C110.507 61.076 111.038 61.544 111.839 61.544C112.388 61.544 112.721 61.364 113.063 61.022L113.711 61.652C113.126 62.273 112.487 62.462 111.803 62.462C110.381 62.462 109.4 61.544 109.4 60.122ZM110.498 59.6H112.919C112.919 59.06 112.406 58.61 111.776 58.61C111.101 58.61 110.543 59.051 110.498 59.6ZM114.881 62.354V57.818H115.952V58.493C116.168 58.025 116.654 57.728 117.302 57.728C117.419 57.728 117.581 57.746 117.626 57.755V58.799C117.5 58.772 117.347 58.754 117.176 58.754C116.429 58.754 115.952 59.222 115.952 59.969V62.354H114.881ZM117.992 61.553L118.685 60.968C118.874 61.274 119.297 61.535 119.882 61.535C120.503 61.535 120.692 61.274 120.692 61.04C120.692 60.662 120.152 60.572 119.45 60.32C118.784 60.077 118.334 59.735 118.334 59.042C118.334 58.169 119.072 57.683 119.936 57.683C120.692 57.683 121.196 57.971 121.511 58.367L120.908 59.006C120.719 58.781 120.413 58.61 119.918 58.61C119.576 58.61 119.369 58.772 119.369 59.015C119.369 59.357 119.747 59.402 120.512 59.681C121.349 59.978 121.727 60.374 121.727 61.031C121.727 61.814 121.16 62.471 119.864 62.471C118.919 62.471 118.271 62.093 117.992 61.553ZM126.388 61.562C127.126 61.562 127.594 61.238 127.594 60.662V60.167C127.459 60.257 127.126 60.311 126.559 60.401C125.938 60.5 125.65 60.698 125.65 61.04C125.65 61.373 125.92 61.562 126.388 61.562ZM126.199 62.48C125.2 62.48 124.597 61.958 124.597 61.148C124.597 60.266 125.245 59.762 126.649 59.555C127.468 59.438 127.594 59.42 127.594 59.141V59.096C127.594 58.844 127.387 58.574 126.766 58.574C126.235 58.574 125.785 58.808 125.452 59.204L124.822 58.61C125.263 58.016 125.956 57.674 126.784 57.674C128.008 57.674 128.647 58.214 128.647 59.186V61.148C128.647 61.49 128.827 61.499 129.007 61.499C129.016 61.499 129.052 61.499 129.052 61.499V62.336C128.908 62.417 128.728 62.435 128.548 62.435C128.206 62.435 128.044 62.3 127.963 62.219C127.882 62.129 127.837 62.039 127.801 61.922C127.477 62.327 126.856 62.48 126.199 62.48ZM129.84 62.354V57.818H130.911V58.493C131.127 58.025 131.613 57.728 132.261 57.728C132.378 57.728 132.54 57.746 132.585 57.755V58.799C132.459 58.772 132.306 58.754 132.135 58.754C131.388 58.754 130.911 59.222 130.911 59.969V62.354H129.84ZM132.999 60.122V60.086C132.999 58.628 134.016 57.692 135.375 57.692C136.725 57.692 137.616 58.709 137.616 59.978C137.616 59.978 137.616 60.176 137.598 60.356H134.07C134.106 61.076 134.637 61.544 135.438 61.544C135.987 61.544 136.32 61.364 136.662 61.022L137.31 61.652C136.725 62.273 136.086 62.462 135.402 62.462C133.98 62.462 132.999 61.544 132.999 60.122ZM134.097 59.6H136.518C136.518 59.06 136.005 58.61 135.375 58.61C134.7 58.61 134.142 59.051 134.097 59.6ZM48.8681 73.562C49.6061 73.562 50.0741 73.238 50.0741 72.662V72.167C49.9391 72.257 49.6061 72.311 49.0391 72.401C48.4181 72.5 48.1301 72.698 48.1301 73.04C48.1301 73.373 48.4001 73.562 48.8681 73.562ZM48.6791 74.48C47.6801 74.48 47.0771 73.958 47.0771 73.148C47.0771 72.266 47.7251 71.762 49.1291 71.555C49.9481 71.438 50.0741 71.42 50.0741 71.141V71.096C50.0741 70.844 49.8671 70.574 49.2461 70.574C48.7151 70.574 48.2651 70.808 47.9321 71.204L47.3021 70.61C47.7431 70.016 48.4361 69.674 49.2641 69.674C50.4881 69.674 51.1271 70.214 51.1271 71.186V73.148C51.1271 73.49 51.3071 73.499 51.4871 73.499C51.4961 73.499 51.5321 73.499 51.5321 73.499V74.336C51.3881 74.417 51.2081 74.435 51.0281 74.435C50.6861 74.435 50.5241 74.3 50.4431 74.219C50.3621 74.129 50.3171 74.039 50.2811 73.922C49.9571 74.327 49.3361 74.48 48.6791 74.48ZM52.4582 72.941V70.799H51.8912V69.818H52.4582V68.081H53.5382V69.818H54.5372V70.799H53.5382V72.824C53.5382 73.319 53.7182 73.499 54.1052 73.499C54.2222 73.499 54.3482 73.49 54.4832 73.463V74.426C54.3302 74.462 54.1322 74.48 53.9252 74.48C53.3042 74.48 52.4582 74.3 52.4582 72.941ZM55.6046 72.941V70.799H55.0376V69.818H55.6046V68.081H56.6846V69.818H57.6836V70.799H56.6846V72.824C56.6846 73.319 56.8646 73.499 57.2516 73.499C57.3686 73.499 57.4946 73.49 57.6296 73.463V74.426C57.4766 74.462 57.2786 74.48 57.0716 74.48C56.4506 74.48 55.6046 74.3 55.6046 72.941ZM60.0214 73.562C60.7594 73.562 61.2274 73.238 61.2274 72.662V72.167C61.0924 72.257 60.7594 72.311 60.1924 72.401C59.5714 72.5 59.2834 72.698 59.2834 73.04C59.2834 73.373 59.5534 73.562 60.0214 73.562ZM59.8324 74.48C58.8334 74.48 58.2304 73.958 58.2304 73.148C58.2304 72.266 58.8784 71.762 60.2824 71.555C61.1014 71.438 61.2274 71.42 61.2274 71.141V71.096C61.2274 70.844 61.0204 70.574 60.3994 70.574C59.8684 70.574 59.4184 70.808 59.0854 71.204L58.4554 70.61C58.8964 70.016 59.5894 69.674 60.4174 69.674C61.6414 69.674 62.2804 70.214 62.2804 71.186V73.148C62.2804 73.49 62.4604 73.499 62.6404 73.499C62.6494 73.499 62.6854 73.499 62.6854 73.499V74.336C62.5414 74.417 62.3614 74.435 62.1814 74.435C61.8394 74.435 61.6774 74.3 61.5964 74.219C61.5154 74.129 61.4704 74.039 61.4344 73.922C61.1104 74.327 60.4894 74.48 59.8324 74.48ZM63.1874 72.077C63.1874 70.691 64.2854 69.674 65.6534 69.674C66.3284 69.674 66.9494 69.899 67.4714 70.457L66.8054 71.15C66.4994 70.835 66.1394 70.655 65.6534 70.655C64.8614 70.655 64.2584 71.258 64.2584 72.077C64.2584 72.896 64.8614 73.499 65.6534 73.499C66.1394 73.499 66.4994 73.319 66.8054 73.004L67.4714 73.697C66.9494 74.255 66.3284 74.48 65.6534 74.48C64.2854 74.48 63.1874 73.463 63.1874 72.077ZM68.2721 74.354V68.081H69.3431V70.448C69.5411 70.025 70.0271 69.728 70.6661 69.728C71.7191 69.728 72.3221 70.43 72.3221 71.546V74.354H71.2511V71.699C71.2511 71.087 70.9181 70.691 70.3421 70.691C69.7571 70.691 69.3431 71.123 69.3431 71.744V74.354H68.2721ZM73.207 72.122V72.086C73.207 70.628 74.224 69.692 75.583 69.692C76.933 69.692 77.824 70.709 77.824 71.978C77.824 71.978 77.824 72.176 77.806 72.356H74.278C74.314 73.076 74.845 73.544 75.646 73.544C76.195 73.544 76.528 73.364 76.87 73.022L77.518 73.652C76.933 74.273 76.294 74.462 75.61 74.462C74.188 74.462 73.207 73.544 73.207 72.122ZM74.305 71.6H76.726C76.726 71.06 76.213 70.61 75.583 70.61C74.908 70.61 74.35 71.051 74.305 71.6ZM78.4716 72.086C78.4716 70.745 79.4616 69.719 80.7396 69.719C81.5046 69.719 82.0356 70.052 82.1886 70.475V68.081H83.2686V74.354H82.1886V73.697C82.0356 74.12 81.5046 74.453 80.7396 74.453C79.4616 74.453 78.4716 73.427 78.4716 72.086ZM79.5426 72.086C79.5426 72.878 80.1186 73.472 80.8836 73.472C81.6666 73.472 82.2696 72.878 82.2696 72.086C82.2696 71.294 81.6666 70.7 80.8836 70.7C80.1186 70.7 79.5426 71.294 79.5426 72.086ZM87.3834 69.287C87.0324 69.287 86.7354 69.008 86.7354 68.648C86.7354 68.288 87.0324 68.009 87.3834 68.009C87.7254 68.009 88.0224 68.288 88.0224 68.648C88.0224 69.008 87.7254 69.287 87.3834 69.287ZM86.8434 74.354V69.818H87.9234V74.354H86.8434ZM89.0231 74.354V69.818H90.0941V70.466C90.3011 70.034 90.8141 69.728 91.4711 69.728C92.5601 69.728 93.1901 70.43 93.1901 71.546V74.354H92.1101V71.699C92.1101 71.087 91.7591 70.691 91.1471 70.691C90.5351 70.691 90.0941 71.123 90.0941 71.744V74.354H89.0231ZM98.2187 73.562C98.9567 73.562 99.4247 73.238 99.4247 72.662V72.167C99.2897 72.257 98.9567 72.311 98.3897 72.401C97.7687 72.5 97.4807 72.698 97.4807 73.04C97.4807 73.373 97.7507 73.562 98.2187 73.562ZM98.0297 74.48C97.0307 74.48 96.4277 73.958 96.4277 73.148C96.4277 72.266 97.0757 71.762 98.4797 71.555C99.2987 71.438 99.4247 71.42 99.4247 71.141V71.096C99.4247 70.844 99.2177 70.574 98.5967 70.574C98.0657 70.574 97.6157 70.808 97.2827 71.204L96.6527 70.61C97.0937 70.016 97.7867 69.674 98.6147 69.674C99.8387 69.674 100.478 70.214 100.478 71.186V73.148C100.478 73.49 100.658 73.499 100.838 73.499C100.847 73.499 100.883 73.499 100.883 73.499V74.336C100.739 74.417 100.559 74.435 100.379 74.435C100.037 74.435 99.8747 74.3 99.7937 74.219C99.7127 74.129 99.6677 74.039 99.6317 73.922C99.3077 74.327 98.6867 74.48 98.0297 74.48ZM101.671 74.354V69.818H102.742V70.466C102.949 70.034 103.462 69.728 104.119 69.728C105.208 69.728 105.838 70.43 105.838 71.546V74.354H104.758V71.699C104.758 71.087 104.407 70.691 103.795 70.691C103.183 70.691 102.742 71.123 102.742 71.744V74.354H101.671ZM108.484 73.562C109.222 73.562 109.69 73.238 109.69 72.662V72.167C109.555 72.257 109.222 72.311 108.655 72.401C108.034 72.5 107.746 72.698 107.746 73.04C107.746 73.373 108.016 73.562 108.484 73.562ZM108.295 74.48C107.296 74.48 106.693 73.958 106.693 73.148C106.693 72.266 107.341 71.762 108.745 71.555C109.564 71.438 109.69 71.42 109.69 71.141V71.096C109.69 70.844 109.483 70.574 108.862 70.574C108.331 70.574 107.881 70.808 107.548 71.204L106.918 70.61C107.359 70.016 108.052 69.674 108.88 69.674C110.104 69.674 110.743 70.214 110.743 71.186V73.148C110.743 73.49 110.923 73.499 111.103 73.499C111.112 73.499 111.148 73.499 111.148 73.499V74.336C111.004 74.417 110.824 74.435 110.644 74.435C110.302 74.435 110.14 74.3 110.059 74.219C109.978 74.129 109.933 74.039 109.897 73.922C109.573 74.327 108.952 74.48 108.295 74.48ZM111.936 76.091V69.818H113.016V70.475C113.169 70.052 113.7 69.719 114.465 69.719C115.743 69.719 116.733 70.745 116.733 72.086C116.733 73.427 115.743 74.453 114.465 74.453C113.7 74.453 113.169 74.12 113.016 73.697V76.091H111.936ZM112.935 72.086C112.935 72.878 113.538 73.472 114.321 73.472C115.086 73.472 115.662 72.878 115.662 72.086C115.662 71.294 115.086 70.7 114.321 70.7C113.538 70.7 112.935 71.294 112.935 72.086ZM117.623 74.354V68.081H118.694V70.448C118.892 70.025 119.378 69.728 120.017 69.728C121.07 69.728 121.673 70.43 121.673 71.546V74.354H120.602V71.699C120.602 71.087 120.269 70.691 119.693 70.691C119.108 70.691 118.694 71.123 118.694 71.744V74.354H117.623ZM124.349 73.562C125.087 73.562 125.555 73.238 125.555 72.662V72.167C125.42 72.257 125.087 72.311 124.52 72.401C123.899 72.5 123.611 72.698 123.611 73.04C123.611 73.373 123.881 73.562 124.349 73.562ZM124.16 74.48C123.161 74.48 122.558 73.958 122.558 73.148C122.558 72.266 123.206 71.762 124.61 71.555C125.429 71.438 125.555 71.42 125.555 71.141V71.096C125.555 70.844 125.348 70.574 124.727 70.574C124.196 70.574 123.746 70.808 123.413 71.204L122.783 70.61C123.224 70.016 123.917 69.674 124.745 69.674C125.969 69.674 126.608 70.214 126.608 71.186V73.148C126.608 73.49 126.788 73.499 126.968 73.499C126.977 73.499 127.013 73.499 127.013 73.499V74.336C126.869 74.417 126.689 74.435 126.509 74.435C126.167 74.435 126.005 74.3 125.924 74.219C125.843 74.129 125.798 74.039 125.762 73.922C125.438 74.327 124.817 74.48 124.16 74.48ZM127.449 73.553L128.142 72.968C128.331 73.274 128.754 73.535 129.339 73.535C129.96 73.535 130.149 73.274 130.149 73.04C130.149 72.662 129.609 72.572 128.907 72.32C128.241 72.077 127.791 71.735 127.791 71.042C127.791 70.169 128.529 69.683 129.393 69.683C130.149 69.683 130.653 69.971 130.968 70.367L130.365 71.006C130.176 70.781 129.87 70.61 129.375 70.61C129.033 70.61 128.826 70.772 128.826 71.015C128.826 71.357 129.204 71.402 129.969 71.681C130.806 71.978 131.184 72.374 131.184 73.031C131.184 73.814 130.617 74.471 129.321 74.471C128.376 74.471 127.728 74.093 127.449 73.553ZM131.795 72.122V72.086C131.795 70.628 132.812 69.692 134.171 69.692C135.521 69.692 136.412 70.709 136.412 71.978C136.412 71.978 136.412 72.176 136.394 72.356H132.866C132.902 73.076 133.433 73.544 134.234 73.544C134.783 73.544 135.116 73.364 135.458 73.022L136.106 73.652C135.521 74.273 134.882 74.462 134.198 74.462C132.776 74.462 131.795 73.544 131.795 72.122ZM132.893 71.6H135.314C135.314 71.06 134.801 70.61 134.171 70.61C133.496 70.61 132.938 71.051 132.893 71.6ZM140.014 74.354V68.081H141.139V74.354H140.014ZM142.307 73.805C142.307 73.463 142.604 73.193 142.937 73.193C143.27 73.193 143.558 73.463 143.558 73.805C143.558 74.156 143.27 74.426 142.937 74.426C142.604 74.426 142.307 74.156 142.307 73.805Z" fill="black"/>
<rect x="17.9888" y="91.7655" width="165.97" height="42.3993" rx="7.79977" fill="white"/>
<g style="mix-blend-mode:multiply">
<rect x="45.8735" y="102.236" width="123.582" height="14.1575" rx="2.53674" fill="#7583FF"/>
</g>
<path d="M32.5114 120.965L37.2498 115.13C37.5715 114.735 37.7909 114.326 37.7909 113.872C37.7909 113.199 37.279 112.658 36.6209 112.658C35.9189 112.658 35.3486 113.331 35.3486 114.165H33.0964C33.0964 112.19 34.6758 110.611 36.6209 110.611C38.5075 110.611 40.043 112.073 40.043 113.872C40.043 114.428 39.9845 115.159 39.2533 116.037L36.8695 118.918H40.3355V120.965H32.5114Z" fill="black"/>
<path d="M50.3788 112.465V106.192H51.5038V108.64H54.5188V106.192H55.6348V112.465H54.5188V109.657H51.5038V112.465H50.3788ZM56.7587 110.197C56.7587 108.838 57.8567 107.794 59.2337 107.794C60.6017 107.794 61.7087 108.838 61.7087 110.197C61.7087 111.556 60.6017 112.6 59.2337 112.6C57.8567 112.6 56.7587 111.556 56.7587 110.197ZM57.8297 110.197C57.8297 110.998 58.4327 111.619 59.2337 111.619C60.0257 111.619 60.6377 110.998 60.6377 110.197C60.6377 109.396 60.0257 108.775 59.2337 108.775C58.4327 108.775 57.8297 109.396 57.8297 110.197ZM62.6081 112.465V107.929H63.6791V108.577C63.8681 108.145 64.3091 107.839 64.9031 107.839C65.5331 107.839 65.9561 108.127 66.1721 108.631C66.4511 108.064 67.0001 107.839 67.6571 107.839C68.6561 107.839 69.2321 108.541 69.2321 109.657V112.465H68.1521V109.81C68.1521 109.198 67.8641 108.802 67.3421 108.802C66.8201 108.802 66.4421 109.234 66.4421 109.855V112.465H65.3711V109.81C65.3711 109.198 65.0831 108.802 64.5611 108.802C64.0571 108.802 63.6791 109.234 63.6791 109.855V112.465H62.6081ZM70.0829 110.197C70.0829 108.838 71.1809 107.794 72.5579 107.794C73.9259 107.794 75.0329 108.838 75.0329 110.197C75.0329 111.556 73.9259 112.6 72.5579 112.6C71.1809 112.6 70.0829 111.556 70.0829 110.197ZM71.1539 110.197C71.1539 110.998 71.7569 111.619 72.5579 111.619C73.3499 111.619 73.9619 110.998 73.9619 110.197C73.9619 109.396 73.3499 108.775 72.5579 108.775C71.7569 108.775 71.1539 109.396 71.1539 110.197ZM75.9143 111.124V106.192H76.9943V110.98C76.9943 111.421 77.1383 111.61 77.5343 111.61C77.6333 111.61 77.7593 111.601 77.8583 111.574V112.537C77.7323 112.573 77.5343 112.591 77.3453 112.591C76.7603 112.591 75.9143 112.429 75.9143 111.124ZM78.3359 110.197C78.3359 108.838 79.4339 107.794 80.8109 107.794C82.1789 107.794 83.2859 108.838 83.2859 110.197C83.2859 111.556 82.1789 112.6 80.8109 112.6C79.4339 112.6 78.3359 111.556 78.3359 110.197ZM79.4069 110.197C79.4069 110.998 80.0099 111.619 80.8109 111.619C81.6029 111.619 82.2149 110.998 82.2149 110.197C82.2149 109.396 81.6029 108.775 80.8109 108.775C80.0099 108.775 79.4069 109.396 79.4069 110.197ZM85.0582 110.179C85.0582 110.962 85.6342 111.547 86.3992 111.547C87.1822 111.547 87.7852 110.962 87.7852 110.179C87.7852 109.405 87.1822 108.811 86.3992 108.811C85.6342 108.811 85.0582 109.405 85.0582 110.179ZM83.9872 110.179C83.9872 108.856 84.9772 107.83 86.2552 107.83C87.0202 107.83 87.5512 108.163 87.7042 108.586V107.929H88.7842V111.709C88.7842 112.663 88.6852 113.419 88.0192 113.941C87.6142 114.256 87.0382 114.445 86.4172 114.445C85.5712 114.445 84.8422 114.229 84.2212 113.788L84.7432 112.987C85.2022 113.293 85.6882 113.482 86.3002 113.482C86.6962 113.482 87.0562 113.392 87.2992 113.212C87.6772 112.933 87.7312 112.465 87.7312 112.06V111.835C87.5332 112.195 87.0112 112.501 86.2552 112.501C84.9772 112.501 83.9872 111.502 83.9872 110.179ZM89.665 110.197C89.665 108.838 90.763 107.794 92.14 107.794C93.508 107.794 94.615 108.838 94.615 110.197C94.615 111.556 93.508 112.6 92.14 112.6C90.763 112.6 89.665 111.556 89.665 110.197ZM90.736 110.197C90.736 110.998 91.339 111.619 92.14 111.619C92.932 111.619 93.544 110.998 93.544 110.197C93.544 109.396 92.932 108.775 92.14 108.775C91.339 108.775 90.736 109.396 90.736 110.197ZM95.4603 110.665V107.929H96.5493V110.575C96.5493 111.286 96.9723 111.592 97.5393 111.592C98.1063 111.592 98.5293 111.286 98.5293 110.566V107.929H99.6183V110.638C99.6183 111.952 98.6643 112.582 97.5303 112.582C96.4053 112.582 95.4603 111.961 95.4603 110.665ZM100.287 111.664L100.98 111.079C101.169 111.385 101.592 111.646 102.177 111.646C102.798 111.646 102.987 111.385 102.987 111.151C102.987 110.773 102.447 110.683 101.745 110.431C101.079 110.188 100.629 109.846 100.629 109.153C100.629 108.28 101.367 107.794 102.231 107.794C102.987 107.794 103.491 108.082 103.806 108.478L103.203 109.117C103.014 108.892 102.708 108.721 102.213 108.721C101.871 108.721 101.664 108.883 101.664 109.126C101.664 109.468 102.042 109.513 102.807 109.792C103.644 110.089 104.022 110.485 104.022 111.142C104.022 111.925 103.455 112.582 102.159 112.582C101.214 112.582 100.566 112.204 100.287 111.664ZM106.909 110.188C106.909 108.802 108.007 107.785 109.375 107.785C110.05 107.785 110.671 108.01 111.193 108.568L110.527 109.261C110.221 108.946 109.861 108.766 109.375 108.766C108.583 108.766 107.98 109.369 107.98 110.188C107.98 111.007 108.583 111.61 109.375 111.61C109.861 111.61 110.221 111.43 110.527 111.115L111.193 111.808C110.671 112.366 110.05 112.591 109.375 112.591C108.007 112.591 106.909 111.574 106.909 110.188ZM111.994 112.465V106.192H113.065V108.559C113.263 108.136 113.749 107.839 114.388 107.839C115.441 107.839 116.044 108.541 116.044 109.657V112.465H114.973V109.81C114.973 109.198 114.64 108.802 114.064 108.802C113.479 108.802 113.065 109.234 113.065 109.855V112.465H111.994ZM117.127 112.465V107.929H118.198V108.604C118.414 108.136 118.9 107.839 119.548 107.839C119.665 107.839 119.827 107.857 119.872 107.866V108.91C119.746 108.883 119.593 108.865 119.422 108.865C118.675 108.865 118.198 109.333 118.198 110.08V112.465H117.127ZM120.286 110.197C120.286 108.838 121.384 107.794 122.761 107.794C124.129 107.794 125.236 108.838 125.236 110.197C125.236 111.556 124.129 112.6 122.761 112.6C121.384 112.6 120.286 111.556 120.286 110.197ZM121.357 110.197C121.357 110.998 121.96 111.619 122.761 111.619C123.553 111.619 124.165 110.998 124.165 110.197C124.165 109.396 123.553 108.775 122.761 108.775C121.96 108.775 121.357 109.396 121.357 110.197ZM126.135 112.465V107.929H127.206V108.577C127.395 108.145 127.836 107.839 128.43 107.839C129.06 107.839 129.483 108.127 129.699 108.631C129.978 108.064 130.527 107.839 131.184 107.839C132.183 107.839 132.759 108.541 132.759 109.657V112.465H131.679V109.81C131.679 109.198 131.391 108.802 130.869 108.802C130.347 108.802 129.969 109.234 129.969 109.855V112.465H128.898V109.81C128.898 109.198 128.61 108.802 128.088 108.802C127.584 108.802 127.206 109.234 127.206 109.855V112.465H126.135ZM133.61 110.197C133.61 108.838 134.708 107.794 136.085 107.794C137.453 107.794 138.56 108.838 138.56 110.197C138.56 111.556 137.453 112.6 136.085 112.6C134.708 112.6 133.61 111.556 133.61 110.197ZM134.681 110.197C134.681 110.998 135.284 111.619 136.085 111.619C136.877 111.619 137.489 110.998 137.489 110.197C137.489 109.396 136.877 108.775 136.085 108.775C135.284 108.775 134.681 109.396 134.681 110.197ZM139.038 111.664L139.731 111.079C139.92 111.385 140.343 111.646 140.928 111.646C141.549 111.646 141.738 111.385 141.738 111.151C141.738 110.773 141.198 110.683 140.496 110.431C139.83 110.188 139.38 109.846 139.38 109.153C139.38 108.28 140.118 107.794 140.982 107.794C141.738 107.794 142.242 108.082 142.557 108.478L141.954 109.117C141.765 108.892 141.459 108.721 140.964 108.721C140.622 108.721 140.415 108.883 140.415 109.126C140.415 109.468 140.793 109.513 141.558 109.792C142.395 110.089 142.773 110.485 142.773 111.142C142.773 111.925 142.206 112.582 140.91 112.582C139.965 112.582 139.317 112.204 139.038 111.664ZM143.366 110.197C143.366 108.838 144.464 107.794 145.841 107.794C147.209 107.794 148.316 108.838 148.316 110.197C148.316 111.556 147.209 112.6 145.841 112.6C144.464 112.6 143.366 111.556 143.366 110.197ZM144.437 110.197C144.437 110.998 145.04 111.619 145.841 111.619C146.633 111.619 147.245 110.998 147.245 110.197C147.245 109.396 146.633 108.775 145.841 108.775C145.04 108.775 144.437 109.396 144.437 110.197ZM149.216 112.465V107.929H150.287V108.577C150.476 108.145 150.917 107.839 151.511 107.839C152.141 107.839 152.564 108.127 152.78 108.631C153.059 108.064 153.608 107.839 154.265 107.839C155.264 107.839 155.84 108.541 155.84 109.657V112.465H154.76V109.81C154.76 109.198 154.472 108.802 153.95 108.802C153.428 108.802 153.05 109.234 153.05 109.855V112.465H151.979V109.81C151.979 109.198 151.691 108.802 151.169 108.802C150.665 108.802 150.287 109.234 150.287 109.855V112.465H149.216ZM156.69 110.233V110.197C156.69 108.739 157.707 107.803 159.066 107.803C160.416 107.803 161.307 108.82 161.307 110.089C161.307 110.089 161.307 110.287 161.289 110.467H157.761C157.797 111.187 158.328 111.655 159.129 111.655C159.678 111.655 160.011 111.475 160.353 111.133L161.001 111.763C160.416 112.384 159.777 112.573 159.093 112.573C157.671 112.573 156.69 111.655 156.69 110.233ZM157.788 109.711H160.209C160.209 109.171 159.696 108.721 159.066 108.721C158.391 108.721 157.833 109.162 157.788 109.711ZM161.802 111.664L162.495 111.079C162.684 111.385 163.107 111.646 163.692 111.646C164.313 111.646 164.502 111.385 164.502 111.151C164.502 110.773 163.962 110.683 163.26 110.431C162.594 110.188 162.144 109.846 162.144 109.153C162.144 108.28 162.882 107.794 163.746 107.794C164.502 107.794 165.006 108.082 165.321 108.478L164.718 109.117C164.529 108.892 164.223 108.721 163.728 108.721C163.386 108.721 163.179 108.883 163.179 109.126C163.179 109.468 163.557 109.513 164.322 109.792C165.159 110.089 165.537 110.485 165.537 111.142C165.537 111.925 164.97 112.582 163.674 112.582C162.729 112.582 162.081 112.204 161.802 111.664Z" fill="white"/>
<path d="M51.7558 123.673C52.4938 123.673 52.9618 123.349 52.9618 122.773V122.278C52.8268 122.368 52.4938 122.422 51.9268 122.512C51.3058 122.611 51.0178 122.809 51.0178 123.151C51.0178 123.484 51.2878 123.673 51.7558 123.673ZM51.5668 124.591C50.5678 124.591 49.9648 124.069 49.9648 123.259C49.9648 122.377 50.6128 121.873 52.0168 121.666C52.8358 121.549 52.9618 121.531 52.9618 121.252V121.207C52.9618 120.955 52.7548 120.685 52.1338 120.685C51.6028 120.685 51.1528 120.919 50.8198 121.315L50.1898 120.721C50.6308 120.127 51.3238 119.785 52.1518 119.785C53.3758 119.785 54.0148 120.325 54.0148 121.297V123.259C54.0148 123.601 54.1948 123.61 54.3748 123.61C54.3838 123.61 54.4198 123.61 54.4198 123.61V124.447C54.2758 124.528 54.0958 124.546 53.9158 124.546C53.5738 124.546 53.4118 124.411 53.3308 124.33C53.2498 124.24 53.2048 124.15 53.1688 124.033C52.8448 124.438 52.2238 124.591 51.5668 124.591ZM55.2077 124.465V119.929H56.2787V120.604C56.4947 120.136 56.9807 119.839 57.6287 119.839C57.7457 119.839 57.9077 119.857 57.9527 119.866V120.91C57.8267 120.883 57.6737 120.865 57.5027 120.865C56.7557 120.865 56.2787 121.333 56.2787 122.08V124.465H55.2077ZM58.3671 122.233V122.197C58.3671 120.739 59.3841 119.803 60.7431 119.803C62.0931 119.803 62.9841 120.82 62.9841 122.089C62.9841 122.089 62.9841 122.287 62.9661 122.467H59.4381C59.4741 123.187 60.0051 123.655 60.8061 123.655C61.3551 123.655 61.6881 123.475 62.0301 123.133L62.6781 123.763C62.0931 124.384 61.4541 124.573 60.7701 124.573C59.3481 124.573 58.3671 123.655 58.3671 122.233ZM59.4651 121.711H61.8861C61.8861 121.171 61.3731 120.721 60.7431 120.721C60.0681 120.721 59.5101 121.162 59.4651 121.711ZM66.3346 126.202V119.929H67.4146V120.586C67.5676 120.163 68.0986 119.83 68.8636 119.83C70.1416 119.83 71.1316 120.856 71.1316 122.197C71.1316 123.538 70.1416 124.564 68.8636 124.564C68.0986 124.564 67.5676 124.231 67.4146 123.808V126.202H66.3346ZM67.3336 122.197C67.3336 122.989 67.9366 123.583 68.7196 123.583C69.4846 123.583 70.0606 122.989 70.0606 122.197C70.0606 121.405 69.4846 120.811 68.7196 120.811C67.9366 120.811 67.3336 121.405 67.3336 122.197ZM71.9672 122.665V119.929H73.0562V122.575C73.0562 123.286 73.4792 123.592 74.0462 123.592C74.6132 123.592 75.0362 123.286 75.0362 122.566V119.929H76.1252V122.638C76.1252 123.952 75.1712 124.582 74.0372 124.582C72.9122 124.582 71.9672 123.961 71.9672 122.665ZM76.7942 123.664L77.4872 123.079C77.6762 123.385 78.0992 123.646 78.6842 123.646C79.3052 123.646 79.4942 123.385 79.4942 123.151C79.4942 122.773 78.9542 122.683 78.2522 122.431C77.5862 122.188 77.1362 121.846 77.1362 121.153C77.1362 120.28 77.8742 119.794 78.7382 119.794C79.4942 119.794 79.9982 120.082 80.3132 120.478L79.7102 121.117C79.5212 120.892 79.2152 120.721 78.7202 120.721C78.3782 120.721 78.1712 120.883 78.1712 121.126C78.1712 121.468 78.5492 121.513 79.3142 121.792C80.1512 122.089 80.5292 122.485 80.5292 123.142C80.5292 123.925 79.9622 124.582 78.6662 124.582C77.7212 124.582 77.0732 124.204 76.7942 123.664ZM81.3376 124.465V118.192H82.4086V120.559C82.6066 120.136 83.0926 119.839 83.7316 119.839C84.7846 119.839 85.3876 120.541 85.3876 121.657V124.465H84.3166V121.81C84.3166 121.198 83.9836 120.802 83.4076 120.802C82.8226 120.802 82.4086 121.234 82.4086 121.855V124.465H81.3376ZM86.2724 122.233V122.197C86.2724 120.739 87.2894 119.803 88.6484 119.803C89.9984 119.803 90.8894 120.82 90.8894 122.089C90.8894 122.089 90.8894 122.287 90.8714 122.467H87.3434C87.3794 123.187 87.9104 123.655 88.7114 123.655C89.2604 123.655 89.5934 123.475 89.9354 123.133L90.5834 123.763C89.9984 124.384 89.3594 124.573 88.6754 124.573C87.2534 124.573 86.2724 123.655 86.2724 122.233ZM87.3704 121.711H89.7914C89.7914 121.171 89.2784 120.721 88.6484 120.721C87.9734 120.721 87.4154 121.162 87.3704 121.711ZM91.537 122.197C91.537 120.856 92.527 119.83 93.805 119.83C94.57 119.83 95.101 120.163 95.254 120.586V118.192H96.334V124.465H95.254V123.808C95.101 124.231 94.57 124.564 93.805 124.564C92.527 124.564 91.537 123.538 91.537 122.197ZM92.608 122.197C92.608 122.989 93.184 123.583 93.949 123.583C94.732 123.583 95.335 122.989 95.335 122.197C95.335 121.405 94.732 120.811 93.949 120.811C93.184 120.811 92.608 121.405 92.608 122.197ZM101.396 123.673C102.134 123.673 102.602 123.349 102.602 122.773V122.278C102.467 122.368 102.134 122.422 101.567 122.512C100.946 122.611 100.658 122.809 100.658 123.151C100.658 123.484 100.928 123.673 101.396 123.673ZM101.207 124.591C100.208 124.591 99.6054 124.069 99.6054 123.259C99.6054 122.377 100.253 121.873 101.657 121.666C102.476 121.549 102.602 121.531 102.602 121.252V121.207C102.602 120.955 102.395 120.685 101.774 120.685C101.243 120.685 100.793 120.919 100.46 121.315L99.8304 120.721C100.271 120.127 100.964 119.785 101.792 119.785C103.016 119.785 103.655 120.325 103.655 121.297V123.259C103.655 123.601 103.835 123.61 104.015 123.61C104.024 123.61 104.06 123.61 104.06 123.61V124.447C103.916 124.528 103.736 124.546 103.556 124.546C103.214 124.546 103.052 124.411 102.971 124.33C102.89 124.24 102.845 124.15 102.809 124.033C102.485 124.438 101.864 124.591 101.207 124.591ZM104.848 126.202V119.929H105.928V120.586C106.081 120.163 106.612 119.83 107.377 119.83C108.655 119.83 109.645 120.856 109.645 122.197C109.645 123.538 108.655 124.564 107.377 124.564C106.612 124.564 106.081 124.231 105.928 123.808V126.202H104.848ZM105.847 122.197C105.847 122.989 106.45 123.583 107.233 123.583C107.998 123.583 108.574 122.989 108.574 122.197C108.574 121.405 107.998 120.811 107.233 120.811C106.45 120.811 105.847 121.405 105.847 122.197ZM112.084 123.673C112.822 123.673 113.29 123.349 113.29 122.773V122.278C113.155 122.368 112.822 122.422 112.255 122.512C111.634 122.611 111.346 122.809 111.346 123.151C111.346 123.484 111.616 123.673 112.084 123.673ZM111.895 124.591C110.896 124.591 110.293 124.069 110.293 123.259C110.293 122.377 110.941 121.873 112.345 121.666C113.164 121.549 113.29 121.531 113.29 121.252V121.207C113.29 120.955 113.083 120.685 112.462 120.685C111.931 120.685 111.481 120.919 111.148 121.315L110.518 120.721C110.959 120.127 111.652 119.785 112.48 119.785C113.704 119.785 114.343 120.325 114.343 121.297V123.259C114.343 123.601 114.523 123.61 114.703 123.61C114.712 123.61 114.748 123.61 114.748 123.61V124.447C114.604 124.528 114.424 124.546 114.244 124.546C113.902 124.546 113.74 124.411 113.659 124.33C113.578 124.24 113.533 124.15 113.497 124.033C113.173 124.438 112.552 124.591 111.895 124.591ZM115.536 124.465V119.929H116.607V120.604C116.823 120.136 117.309 119.839 117.957 119.839C118.074 119.839 118.236 119.857 118.281 119.866V120.91C118.155 120.883 118.002 120.865 117.831 120.865C117.084 120.865 116.607 121.333 116.607 122.08V124.465H115.536ZM119.462 123.052V120.91H118.895V119.929H119.462V118.192H120.542V119.929H121.541V120.91H120.542V122.935C120.542 123.43 120.722 123.61 121.109 123.61C121.226 123.61 121.352 123.601 121.487 123.574V124.537C121.334 124.573 121.136 124.591 120.929 124.591C120.308 124.591 119.462 124.411 119.462 123.052ZM122.237 123.916C122.237 123.574 122.534 123.304 122.867 123.304C123.2 123.304 123.488 123.574 123.488 123.916C123.488 124.267 123.2 124.537 122.867 124.537C122.534 124.537 122.237 124.267 122.237 123.916Z" fill="black"/>
<rect x="17.9888" y="139.722" width="165.97" height="42.3993" rx="7.79977" fill="white"/>
<path d="M32.6284 167.05L34.398 165.953C34.7782 166.64 35.4656 167.021 36.3723 167.021C37.3814 167.021 38.1711 166.421 38.1711 165.485C38.1711 164.549 37.4399 163.964 36.1383 163.964C35.4656 163.964 34.8367 164.008 34.3102 164.154L36.8256 160.776H33.5497V158.728H40.4818L37.7616 162.341H37.7762C39.2972 162.487 40.4233 163.847 40.4233 165.426C40.4233 167.459 38.8877 169.068 36.4162 169.068C34.6905 169.068 33.3011 168.264 32.6284 167.05Z" fill="black"/>
<path d="M51.5668 160.422V155.166H49.8658V154.149H54.3928V155.166H52.6918V160.422H51.5668ZM55.1901 160.422V154.149H56.2611V156.516C56.4591 156.093 56.9451 155.796 57.5841 155.796C58.6371 155.796 59.2401 156.498 59.2401 157.614V160.422H58.1691V157.767C58.1691 157.155 57.8361 156.759 57.2601 156.759C56.6751 156.759 56.2611 157.191 56.2611 157.812V160.422H55.1901ZM60.1249 158.19V158.154C60.1249 156.696 61.1419 155.76 62.5009 155.76C63.8509 155.76 64.7419 156.777 64.7419 158.046C64.7419 158.046 64.7419 158.244 64.7239 158.424H61.1959C61.2319 159.144 61.7629 159.612 62.5639 159.612C63.1129 159.612 63.4459 159.432 63.7879 159.09L64.4359 159.72C63.8509 160.341 63.2119 160.53 62.5279 160.53C61.1059 160.53 60.1249 159.612 60.1249 158.19ZM61.2229 157.668H63.6439C63.6439 157.128 63.1309 156.678 62.5009 156.678C61.8259 156.678 61.2679 157.119 61.2229 157.668ZM65.7954 161.331C65.9484 161.385 66.1374 161.403 66.2994 161.403C66.4614 161.403 66.5874 161.376 66.6954 161.304C66.7944 161.241 66.8844 161.106 66.9564 160.917L67.0734 160.593L65.1744 155.886H66.2634L67.5954 159.306L68.8464 155.886H69.9354L67.9014 161.16C67.7844 161.475 67.6314 161.763 67.4154 161.97C67.1274 162.24 66.7584 162.348 66.3264 162.348C66.1374 162.348 65.9394 162.321 65.7954 162.276V161.331ZM74.3261 159.63C75.0641 159.63 75.5321 159.306 75.5321 158.73V158.235C75.3971 158.325 75.0641 158.379 74.4971 158.469C73.8761 158.568 73.5881 158.766 73.5881 159.108C73.5881 159.441 73.8581 159.63 74.3261 159.63ZM74.1371 160.548C73.1381 160.548 72.5351 160.026 72.5351 159.216C72.5351 158.334 73.1831 157.83 74.5871 157.623C75.4061 157.506 75.5321 157.488 75.5321 157.209V157.164C75.5321 156.912 75.3251 156.642 74.7041 156.642C74.1731 156.642 73.7231 156.876 73.3901 157.272L72.7601 156.678C73.2011 156.084 73.8941 155.742 74.7221 155.742C75.9461 155.742 76.5851 156.282 76.5851 157.254V159.216C76.5851 159.558 76.7651 159.567 76.9451 159.567C76.9541 159.567 76.9901 159.567 76.9901 159.567V160.404C76.8461 160.485 76.6661 160.503 76.4861 160.503C76.1441 160.503 75.9821 160.368 75.9011 160.287C75.8201 160.197 75.7751 160.107 75.7391 159.99C75.4151 160.395 74.7941 160.548 74.1371 160.548ZM77.778 160.422V155.886H78.849V156.561C79.065 156.093 79.551 155.796 80.199 155.796C80.316 155.796 80.478 155.814 80.523 155.823V156.867C80.397 156.84 80.244 156.822 80.073 156.822C79.326 156.822 78.849 157.29 78.849 158.037V160.422H77.778ZM80.9374 158.19V158.154C80.9374 156.696 81.9544 155.76 83.3134 155.76C84.6634 155.76 85.5544 156.777 85.5544 158.046C85.5544 158.046 85.5544 158.244 85.5364 158.424H82.0084C82.0444 159.144 82.5754 159.612 83.3764 159.612C83.9254 159.612 84.2584 159.432 84.6004 159.09L85.2484 159.72C84.6634 160.341 84.0244 160.53 83.3404 160.53C81.9184 160.53 80.9374 159.612 80.9374 158.19ZM82.0354 157.668H84.4564C84.4564 157.128 83.9434 156.678 83.3134 156.678C82.6384 156.678 82.0804 157.119 82.0354 157.668ZM88.905 162.159V155.886H89.985V156.543C90.138 156.12 90.669 155.787 91.434 155.787C92.712 155.787 93.702 156.813 93.702 158.154C93.702 159.495 92.712 160.521 91.434 160.521C90.669 160.521 90.138 160.188 89.985 159.765V162.159H88.905ZM89.904 158.154C89.904 158.946 90.507 159.54 91.29 159.54C92.055 159.54 92.631 158.946 92.631 158.154C92.631 157.362 92.055 156.768 91.29 156.768C90.507 156.768 89.904 157.362 89.904 158.154ZM94.5375 158.622V155.886H95.6265V158.532C95.6265 159.243 96.0495 159.549 96.6165 159.549C97.1835 159.549 97.6065 159.243 97.6065 158.523V155.886H98.6955V158.595C98.6955 159.909 97.7415 160.539 96.6075 160.539C95.4825 160.539 94.5375 159.918 94.5375 158.622ZM99.3645 159.621L100.058 159.036C100.247 159.342 100.67 159.603 101.255 159.603C101.876 159.603 102.065 159.342 102.065 159.108C102.065 158.73 101.525 158.64 100.823 158.388C100.157 158.145 99.7065 157.803 99.7065 157.11C99.7065 156.237 100.445 155.751 101.309 155.751C102.065 155.751 102.569 156.039 102.884 156.435L102.281 157.074C102.092 156.849 101.786 156.678 101.291 156.678C100.949 156.678 100.742 156.84 100.742 157.083C100.742 157.425 101.12 157.47 101.885 157.749C102.722 158.046 103.1 158.442 103.1 159.099C103.1 159.882 102.533 160.539 101.237 160.539C100.292 160.539 99.6435 160.161 99.3645 159.621ZM103.908 160.422V154.149H104.979V156.516C105.177 156.093 105.663 155.796 106.302 155.796C107.355 155.796 107.958 156.498 107.958 157.614V160.422H106.887V157.767C106.887 157.155 106.554 156.759 105.978 156.759C105.393 156.759 104.979 157.191 104.979 157.812V160.422H103.908ZM108.843 158.19V158.154C108.843 156.696 109.86 155.76 111.219 155.76C112.569 155.76 113.46 156.777 113.46 158.046C113.46 158.046 113.46 158.244 113.442 158.424H109.914C109.95 159.144 110.481 159.612 111.282 159.612C111.831 159.612 112.164 159.432 112.506 159.09L113.154 159.72C112.569 160.341 111.93 160.53 111.246 160.53C109.824 160.53 108.843 159.612 108.843 158.19ZM109.941 157.668H112.362C112.362 157.128 111.849 156.678 111.219 156.678C110.544 156.678 109.986 157.119 109.941 157.668ZM114.107 158.154C114.107 156.813 115.097 155.787 116.375 155.787C117.14 155.787 117.671 156.12 117.824 156.543V154.149H118.904V160.422H117.824V159.765C117.671 160.188 117.14 160.521 116.375 160.521C115.097 160.521 114.107 159.495 114.107 158.154ZM115.178 158.154C115.178 158.946 115.754 159.54 116.519 159.54C117.302 159.54 117.905 158.946 117.905 158.154C117.905 157.362 117.302 156.768 116.519 156.768C115.754 156.768 115.178 157.362 115.178 158.154ZM122.609 159.009V156.867H122.042V155.886H122.609V154.149H123.689V155.886H124.688V156.867H123.689V158.892C123.689 159.387 123.869 159.567 124.256 159.567C124.373 159.567 124.499 159.558 124.634 159.531V160.494C124.481 160.53 124.283 160.548 124.076 160.548C123.455 160.548 122.609 160.368 122.609 159.009ZM125.252 158.154C125.252 156.795 126.35 155.751 127.727 155.751C129.095 155.751 130.202 156.795 130.202 158.154C130.202 159.513 129.095 160.557 127.727 160.557C126.35 160.557 125.252 159.513 125.252 158.154ZM126.323 158.154C126.323 158.955 126.926 159.576 127.727 159.576C128.519 159.576 129.131 158.955 129.131 158.154C129.131 157.353 128.519 156.732 127.727 156.732C126.926 156.732 126.323 157.353 126.323 158.154ZM133.63 159.009V156.867H133.063V155.886H133.63V154.149H134.71V155.886H135.709V156.867H134.71V158.892C134.71 159.387 134.89 159.567 135.277 159.567C135.394 159.567 135.52 159.558 135.655 159.531V160.494C135.502 160.53 135.304 160.548 135.097 160.548C134.476 160.548 133.63 160.368 133.63 159.009ZM136.507 160.422V154.149H137.578V156.516C137.776 156.093 138.262 155.796 138.901 155.796C139.954 155.796 140.557 156.498 140.557 157.614V160.422H139.486V157.767C139.486 157.155 139.153 156.759 138.577 156.759C137.992 156.759 137.578 157.191 137.578 157.812V160.422H136.507ZM141.441 158.19V158.154C141.441 156.696 142.458 155.76 143.817 155.76C145.167 155.76 146.058 156.777 146.058 158.046C146.058 158.046 146.058 158.244 146.04 158.424H142.512C142.548 159.144 143.079 159.612 143.88 159.612C144.429 159.612 144.762 159.432 145.104 159.09L145.752 159.72C145.167 160.341 144.528 160.53 143.844 160.53C142.422 160.53 141.441 159.612 141.441 158.19ZM142.539 157.668H144.96C144.96 157.128 144.447 156.678 143.817 156.678C143.142 156.678 142.584 157.119 142.539 157.668ZM149.123 158.145C149.123 156.759 150.221 155.742 151.589 155.742C152.264 155.742 152.885 155.967 153.407 156.525L152.741 157.218C152.435 156.903 152.075 156.723 151.589 156.723C150.797 156.723 150.194 157.326 150.194 158.145C150.194 158.964 150.797 159.567 151.589 159.567C152.075 159.567 152.435 159.387 152.741 159.072L153.407 159.765C152.885 160.323 152.264 160.548 151.589 160.548C150.221 160.548 149.123 159.531 149.123 158.145ZM153.939 158.19V158.154C153.939 156.696 154.956 155.76 156.315 155.76C157.665 155.76 158.556 156.777 158.556 158.046C158.556 158.046 158.556 158.244 158.538 158.424H155.01C155.046 159.144 155.577 159.612 156.378 159.612C156.927 159.612 157.26 159.432 157.602 159.09L158.25 159.72C157.665 160.341 157.026 160.53 156.342 160.53C154.92 160.53 153.939 159.612 153.939 158.19ZM155.037 157.668H157.458C157.458 157.128 156.945 156.678 156.315 156.678C155.64 156.678 155.082 157.119 155.037 157.668ZM159.402 159.081V154.149H160.482V158.937C160.482 159.378 160.626 159.567 161.022 159.567C161.121 159.567 161.247 159.558 161.346 159.531V160.494C161.22 160.53 161.022 160.548 160.833 160.548C160.248 160.548 159.402 160.386 159.402 159.081ZM162.021 159.081V154.149H163.101V158.937C163.101 159.378 163.245 159.567 163.641 159.567C163.74 159.567 163.866 159.558 163.965 159.531V160.494C163.839 160.53 163.641 160.548 163.452 160.548C162.867 160.548 162.021 160.386 162.021 159.081ZM164.138 156.372L164.957 154.149H166.118L164.957 156.372H164.138ZM165.722 159.621L166.415 159.036C166.604 159.342 167.027 159.603 167.612 159.603C168.233 159.603 168.422 159.342 168.422 159.108C168.422 158.73 167.882 158.64 167.18 158.388C166.514 158.145 166.064 157.803 166.064 157.11C166.064 156.237 166.802 155.751 167.666 155.751C168.422 155.751 168.926 156.039 169.241 156.435L168.638 157.074C168.449 156.849 168.143 156.678 167.648 156.678C167.306 156.678 167.099 156.84 167.099 157.083C167.099 157.425 167.477 157.47 168.242 157.749C169.079 158.046 169.457 158.442 169.457 159.099C169.457 159.882 168.89 160.539 167.594 160.539C166.649 160.539 166.001 160.161 165.722 159.621ZM49.9648 170.154C49.9648 168.795 51.0628 167.751 52.4398 167.751C53.8078 167.751 54.9148 168.795 54.9148 170.154C54.9148 171.513 53.8078 172.557 52.4398 172.557C51.0628 172.557 49.9648 171.513 49.9648 170.154ZM51.0358 170.154C51.0358 170.955 51.6388 171.576 52.4398 171.576C53.2318 171.576 53.8438 170.955 53.8438 170.154C53.8438 169.353 53.2318 168.732 52.4398 168.732C51.6388 168.732 51.0358 169.353 51.0358 170.154ZM55.8141 174.159V167.886H56.8941V168.543C57.0471 168.12 57.5781 167.787 58.3431 167.787C59.6211 167.787 60.6111 168.813 60.6111 170.154C60.6111 171.495 59.6211 172.521 58.3431 172.521C57.5781 172.521 57.0471 172.188 56.8941 171.765V174.159H55.8141ZM56.8131 170.154C56.8131 170.946 57.4161 171.54 58.1991 171.54C58.9641 171.54 59.5401 170.946 59.5401 170.154C59.5401 169.362 58.9641 168.768 58.1991 168.768C57.4161 168.768 56.8131 169.362 56.8131 170.154ZM61.5007 174.159V167.886H62.5807V168.543C62.7337 168.12 63.2647 167.787 64.0297 167.787C65.3077 167.787 66.2977 168.813 66.2977 170.154C66.2977 171.495 65.3077 172.521 64.0297 172.521C63.2647 172.521 62.7337 172.188 62.5807 171.765V174.159H61.5007ZM62.4997 170.154C62.4997 170.946 63.1027 171.54 63.8857 171.54C64.6507 171.54 65.2267 170.946 65.2267 170.154C65.2267 169.362 64.6507 168.768 63.8857 168.768C63.1027 168.768 62.4997 169.362 62.4997 170.154ZM66.9892 170.154C66.9892 168.795 68.0872 167.751 69.4642 167.751C70.8322 167.751 71.9392 168.795 71.9392 170.154C71.9392 171.513 70.8322 172.557 69.4642 172.557C68.0872 172.557 66.9892 171.513 66.9892 170.154ZM68.0602 170.154C68.0602 170.955 68.6632 171.576 69.4642 171.576C70.2562 171.576 70.8682 170.955 70.8682 170.154C70.8682 169.353 70.2562 168.732 69.4642 168.732C68.6632 168.732 68.0602 169.353 68.0602 170.154ZM72.4172 171.621L73.1102 171.036C73.2992 171.342 73.7222 171.603 74.3072 171.603C74.9282 171.603 75.1172 171.342 75.1172 171.108C75.1172 170.73 74.5772 170.64 73.8752 170.388C73.2092 170.145 72.7592 169.803 72.7592 169.11C72.7592 168.237 73.4972 167.751 74.3612 167.751C75.1172 167.751 75.6212 168.039 75.9362 168.435L75.3332 169.074C75.1442 168.849 74.8382 168.678 74.3432 168.678C74.0012 168.678 73.7942 168.84 73.7942 169.083C73.7942 169.425 74.1722 169.47 74.9372 169.749C75.7742 170.046 76.1522 170.442 76.1522 171.099C76.1522 171.882 75.5852 172.539 74.2892 172.539C73.3442 172.539 72.6962 172.161 72.4172 171.621ZM77.5006 167.355C77.1496 167.355 76.8526 167.076 76.8526 166.716C76.8526 166.356 77.1496 166.077 77.5006 166.077C77.8426 166.077 78.1396 166.356 78.1396 166.716C78.1396 167.076 77.8426 167.355 77.5006 167.355ZM76.9606 172.422V167.886H78.0406V172.422H76.9606ZM79.1403 172.422V167.886H80.2113V168.534C80.4183 168.102 80.9313 167.796 81.5883 167.796C82.6773 167.796 83.3073 168.498 83.3073 169.614V172.422H82.2273V169.767C82.2273 169.155 81.8763 168.759 81.2643 168.759C80.6523 168.759 80.2113 169.191 80.2113 169.812V172.422H79.1403ZM85.234 170.136C85.234 170.919 85.81 171.504 86.575 171.504C87.358 171.504 87.961 170.919 87.961 170.136C87.961 169.362 87.358 168.768 86.575 168.768C85.81 168.768 85.234 169.362 85.234 170.136ZM84.163 170.136C84.163 168.813 85.153 167.787 86.431 167.787C87.196 167.787 87.727 168.12 87.88 168.543V167.886H88.96V171.666C88.96 172.62 88.861 173.376 88.195 173.898C87.79 174.213 87.214 174.402 86.593 174.402C85.747 174.402 85.018 174.186 84.397 173.745L84.919 172.944C85.378 173.25 85.864 173.439 86.476 173.439C86.872 173.439 87.232 173.349 87.475 173.169C87.853 172.89 87.907 172.422 87.907 172.017V171.792C87.709 172.152 87.187 172.458 86.431 172.458C85.153 172.458 84.163 171.459 84.163 170.136ZM92.3281 170.19V170.154C92.3281 168.696 93.3451 167.76 94.7041 167.76C96.0541 167.76 96.9451 168.777 96.9451 170.046C96.9451 170.046 96.9451 170.244 96.9271 170.424H93.3991C93.4351 171.144 93.9661 171.612 94.7671 171.612C95.3161 171.612 95.6491 171.432 95.9911 171.09L96.6391 171.72C96.0541 172.341 95.4151 172.53 94.7311 172.53C93.3091 172.53 92.3281 171.612 92.3281 170.19ZM93.4261 169.668H95.8471C95.8471 169.128 95.3341 168.678 94.7041 168.678C94.0291 168.678 93.4711 169.119 93.4261 169.668ZM97.8083 172.422V167.886H98.8793V168.534C99.0863 168.102 99.5993 167.796 100.256 167.796C101.345 167.796 101.975 168.498 101.975 169.614V172.422H100.895V169.767C100.895 169.155 100.544 168.759 99.9323 168.759C99.3203 168.759 98.8793 169.191 98.8793 169.812V172.422H97.8083ZM102.831 170.154C102.831 168.813 103.821 167.787 105.099 167.787C105.864 167.787 106.395 168.12 106.548 168.543V166.149H107.628V172.422H106.548V171.765C106.395 172.188 105.864 172.521 105.099 172.521C103.821 172.521 102.831 171.495 102.831 170.154ZM103.902 170.154C103.902 170.946 104.478 171.54 105.243 171.54C106.026 171.54 106.629 170.946 106.629 170.154C106.629 169.362 106.026 168.768 105.243 168.768C104.478 168.768 103.902 169.362 103.902 170.154ZM108.365 171.621L109.058 171.036C109.247 171.342 109.67 171.603 110.255 171.603C110.876 171.603 111.065 171.342 111.065 171.108C111.065 170.73 110.525 170.64 109.823 170.388C109.157 170.145 108.707 169.803 108.707 169.11C108.707 168.237 109.445 167.751 110.309 167.751C111.065 167.751 111.569 168.039 111.884 168.435L111.281 169.074C111.092 168.849 110.786 168.678 110.291 168.678C109.949 168.678 109.742 168.84 109.742 169.083C109.742 169.425 110.12 169.47 110.885 169.749C111.722 170.046 112.1 170.442 112.1 171.099C112.1 171.882 111.533 172.539 110.237 172.539C109.292 172.539 108.644 172.161 108.365 171.621ZM112.719 171.873C112.719 171.531 113.016 171.261 113.349 171.261C113.682 171.261 113.97 171.531 113.97 171.873C113.97 172.224 113.682 172.494 113.349 172.494C113.016 172.494 112.719 172.224 112.719 171.873Z" fill="black"/>
<rect x="124.551" y="25.8794" width="66.3381" height="60.0064" rx="4.40785" fill="#4255FF"/>
<path d="M138.973 96.1413V85.2433C138.973 84.7145 139.401 84.2858 139.93 84.2858H155.417C156.352 84.2858 156.733 85.4883 155.968 86.0264L140.481 96.9244C139.847 97.3709 138.973 96.9171 138.973 96.1413Z" fill="#4255FF"/>
<path d="M149.972 56.3196L147.66 57.2005C147.604 57.2232 147.552 57.2575 147.51 57.3013C147.467 57.3451 147.434 57.3974 147.413 57.4548L146.516 59.7428C146.481 59.8164 146.425 59.8785 146.355 59.9219C146.286 59.9653 146.206 59.9884 146.124 59.9884C146.042 59.9884 145.962 59.9653 145.893 59.9219C145.824 59.8785 145.768 59.8164 145.732 59.7428L144.853 57.4252C144.831 57.3683 144.797 57.3168 144.753 57.2741C144.709 57.2313 144.657 57.1982 144.6 57.1769L142.3 56.2782C142.218 56.2463 142.148 56.1903 142.098 56.1175C142.048 56.0447 142.021 55.9585 142.021 55.8703C142.021 55.782 142.048 55.6958 142.098 55.623C142.148 55.5502 142.218 55.4942 142.3 55.4623L144.606 54.5755C144.664 54.5552 144.716 54.5225 144.76 54.4796C144.804 54.4367 144.838 54.3846 144.859 54.3272L145.732 52.0569C145.764 51.9746 145.82 51.9039 145.892 51.854C145.965 51.8042 146.051 51.7775 146.139 51.7775C146.227 51.7775 146.313 51.8042 146.386 51.854C146.458 51.9039 146.514 51.9746 146.546 52.0569L147.424 54.3686C147.447 54.4262 147.481 54.4785 147.525 54.5222C147.568 54.566 147.621 54.6002 147.678 54.6228L149.978 55.5215C150.054 55.5566 150.119 55.6131 150.164 55.6842C150.209 55.7554 150.233 55.8381 150.232 55.9224C150.232 56.0068 150.207 56.0891 150.161 56.1596C150.114 56.23 150.049 56.2856 149.972 56.3196Z" fill="white"/>
<path d="M157.424 47.5694L155.112 48.4503C155.056 48.4729 155.004 48.5073 154.962 48.551C154.919 48.5948 154.886 48.6471 154.865 48.7045L153.969 50.9925C153.933 51.0662 153.877 51.1283 153.808 51.1717C153.738 51.2151 153.658 51.2381 153.576 51.2381C153.495 51.2381 153.415 51.2151 153.345 51.1717C153.276 51.1283 153.22 51.0662 153.184 50.9925L152.306 48.6749C152.283 48.6181 152.249 48.5666 152.205 48.5238C152.161 48.481 152.109 48.4479 152.052 48.4266L149.752 47.528C149.67 47.4961 149.6 47.4401 149.55 47.3673C149.5 47.2945 149.474 47.2083 149.474 47.12C149.474 47.0318 149.5 46.9456 149.55 46.8728C149.6 46.8 149.67 46.744 149.752 46.7121L152.058 45.8252C152.116 45.805 152.168 45.7722 152.212 45.7293C152.256 45.6864 152.29 45.6344 152.312 45.5769L153.184 43.3066C153.216 43.2244 153.272 43.1536 153.345 43.1038C153.417 43.0539 153.503 43.0272 153.591 43.0272C153.679 43.0272 153.765 43.0539 153.838 43.1038C153.91 43.1536 153.966 43.2244 153.998 43.3066L154.877 45.6183C154.899 45.6759 154.933 45.7282 154.977 45.772C155.021 45.8157 155.073 45.85 155.13 45.8725L157.43 46.7712C157.506 46.8063 157.571 46.8629 157.616 46.934C157.661 47.0051 157.685 47.0879 157.685 47.1722C157.684 47.2565 157.659 47.3389 157.613 47.4093C157.567 47.4798 157.501 47.5354 157.424 47.5694Z" fill="white"/>
<path d="M171.321 62.8881L169.009 63.769C168.952 63.7916 168.901 63.826 168.858 63.8698C168.816 63.9136 168.783 63.9658 168.761 64.0232L167.865 66.3113C167.829 66.3849 167.773 66.447 167.704 66.4904C167.635 66.5338 167.555 66.5569 167.473 66.5569C167.391 66.5569 167.311 66.5338 167.242 66.4904C167.172 66.447 167.117 66.3849 167.081 66.3113L166.202 63.9937C166.18 63.9368 166.145 63.8853 166.102 63.8425C166.058 63.7998 166.006 63.7667 165.949 63.7454L163.649 62.8467C163.567 62.8148 163.496 62.7588 163.446 62.686C163.397 62.6132 163.37 62.527 163.37 62.4388C163.37 62.3505 163.397 62.2643 163.446 62.1915C163.496 62.1187 163.567 62.0627 163.649 62.0308L165.954 61.144C166.012 61.1237 166.065 61.091 166.109 61.048C166.153 61.0051 166.186 60.9531 166.208 60.8957L167.081 58.6254C167.113 58.5431 167.168 58.4724 167.241 58.4225C167.314 58.3726 167.4 58.3459 167.488 58.3459C167.576 58.3459 167.662 58.3726 167.734 58.4225C167.807 58.4724 167.863 58.5431 167.894 58.6254L168.773 60.937C168.796 60.9946 168.83 61.0469 168.873 61.0907C168.917 61.1344 168.969 61.1687 169.027 61.1913L171.326 62.0899C171.403 62.1251 171.468 62.1816 171.513 62.2527C171.558 62.3239 171.582 62.4066 171.581 62.4909C171.58 62.5753 171.555 62.6576 171.509 62.7281C171.463 62.7985 171.398 62.8541 171.321 62.8881Z" fill="white"/>
<path d="M167.113 42.5668C167.455 42.2252 168.009 42.2252 168.35 42.5668L171.758 45.9747C172.1 46.3163 172.1 46.87 171.758 47.2116L167.732 51.2379L163.087 46.5932L167.113 42.5668Z" fill="#7583FF"/>
<path fill-rule="evenodd" clip-rule="evenodd" d="M168.35 42.5667C168.009 42.2251 167.455 42.2251 167.113 42.5667L145.126 64.5538C144.785 64.8953 144.785 65.4491 145.126 65.7906L148.534 69.1985C148.876 69.5401 149.43 69.5401 149.771 69.1985L165.681 53.2884L161.037 48.6436L163.087 46.5929L167.732 51.2376L171.758 47.2115C172.1 46.8699 172.1 46.3162 171.758 45.9746L168.35 42.5667Z" fill="white"/>
<rect x="18.1021" y="17.8784" width="68.8848" height="17.3184" rx="8.65921" fill="#C7F7E6"/>
<path d="M27.6675 20.2173C28.1619 19.7597 28.9251 19.7597 29.4195 20.2173L30.1567 20.8997C30.411 21.1351 30.7493 21.2582 31.0954 21.2414L32.0988 21.1925C32.7716 21.1597 33.3563 21.6504 33.4408 22.3186L33.5669 23.3153C33.6104 23.659 33.7905 23.9708 34.0664 24.1804L34.8665 24.7879C35.4029 25.1953 35.5355 25.9469 35.1707 26.5132L34.6267 27.3577C34.439 27.649 34.3765 28.0036 34.4532 28.3415L34.6756 29.3211C34.8247 29.9781 34.4431 30.6391 33.7996 30.8384L32.84 31.1356C32.509 31.2382 32.2332 31.4696 32.0748 31.7777L31.6154 32.6711C31.3074 33.2702 30.5902 33.5312 29.9691 33.2703L29.043 32.8812C28.7235 32.747 28.3635 32.747 28.044 32.8812L27.1179 33.2703C26.4969 33.5312 25.7796 33.2702 25.4716 32.6711L25.0122 31.7777C24.8538 31.4696 24.578 31.2382 24.247 31.1356L23.2874 30.8384C22.644 30.6391 22.2623 29.9781 22.4114 29.3211L22.6338 28.3415C22.7105 28.0036 22.648 27.649 22.4603 27.3577L21.9163 26.5132C21.5515 25.9469 21.6841 25.1953 22.2206 24.7879L23.0206 24.1804C23.2966 23.9708 23.4766 23.659 23.5201 23.3153L23.6462 22.3186C23.7307 21.6504 24.3154 21.1597 24.9882 21.1925L25.9916 21.2414C26.3377 21.2582 26.676 21.1351 26.9303 20.8997L27.6675 20.2173Z" fill="#586380"/>
<path d="M26.3945 27.1853L27.9423 28.7559L31.443 25.2032" stroke="#C7F7E6" stroke-width="1.12834" stroke-linecap="round" stroke-linejoin="round"/>
<path d="M42.9698 30.406L39.9548 23.863H41.1518L42.9698 27.949L44.7968 23.863H45.9938L42.9698 30.406ZM45.7402 27.904V27.868C45.7402 26.41 46.7572 25.474 48.1162 25.474C49.4662 25.474 50.3572 26.491 50.3572 27.76C50.3572 27.76 50.3572 27.958 50.3392 28.138H46.8112C46.8472 28.858 47.3782 29.326 48.1792 29.326C48.7282 29.326 49.0612 29.146 49.4032 28.804L50.0512 29.434C49.4662 30.055 48.8272 30.244 48.1432 30.244C46.7212 30.244 45.7402 29.326 45.7402 27.904ZM46.8382 27.382H49.2592C49.2592 26.842 48.7462 26.392 48.1162 26.392C47.4412 26.392 46.8832 26.833 46.8382 27.382ZM51.2204 30.136V25.6H52.2914V26.275C52.5074 25.807 52.9934 25.51 53.6414 25.51C53.7584 25.51 53.9204 25.528 53.9654 25.537V26.581C53.8394 26.554 53.6864 26.536 53.5154 26.536C52.7684 26.536 52.2914 27.004 52.2914 27.751V30.136H51.2204ZM55.4166 25.069C55.0656 25.069 54.7686 24.79 54.7686 24.43C54.7686 24.07 55.0656 23.791 55.4166 23.791C55.7586 23.791 56.0556 24.07 56.0556 24.43C56.0556 24.79 55.7586 25.069 55.4166 25.069ZM54.8766 30.136V25.6H55.9566V30.136H54.8766ZM57.5603 30.136V26.581H56.8223V25.6H57.5603V25.375C57.5603 24.664 57.7223 24.304 58.0553 24.034C58.3973 23.755 58.8293 23.737 59.1803 23.737C59.3423 23.737 59.5493 23.755 59.6483 23.773V24.7C59.5223 24.655 59.3693 24.655 59.2343 24.655C58.8293 24.655 58.6403 24.826 58.6403 25.294V25.6H59.4953V26.581H58.6403V30.136H57.5603ZM60.901 25.069C60.55 25.069 60.253 24.79 60.253 24.43C60.253 24.07 60.55 23.791 60.901 23.791C61.243 23.791 61.54 24.07 61.54 24.43C61.54 24.79 61.243 25.069 60.901 25.069ZM60.361 30.136V25.6H61.441V30.136H60.361ZM62.3427 27.904V27.868C62.3427 26.41 63.3597 25.474 64.7187 25.474C66.0687 25.474 66.9597 26.491 66.9597 27.76C66.9597 27.76 66.9597 27.958 66.9417 28.138H63.4137C63.4497 28.858 63.9807 29.326 64.7817 29.326C65.3307 29.326 65.6637 29.146 66.0057 28.804L66.6537 29.434C66.0687 30.055 65.4297 30.244 64.7457 30.244C63.3237 30.244 62.3427 29.326 62.3427 27.904ZM63.4407 27.382H65.8617C65.8617 26.842 65.3487 26.392 64.7187 26.392C64.0437 26.392 63.4857 26.833 63.4407 27.382ZM67.6073 27.868C67.6073 26.527 68.5973 25.501 69.8753 25.501C70.6403 25.501 71.1713 25.834 71.3243 26.257V23.863H72.4043V30.136H71.3243V29.479C71.1713 29.902 70.6403 30.235 69.8753 30.235C68.5973 30.235 67.6073 29.209 67.6073 27.868ZM68.6783 27.868C68.6783 28.66 69.2543 29.254 70.0193 29.254C70.8023 29.254 71.4053 28.66 71.4053 27.868C71.4053 27.076 70.8023 26.482 70.0193 26.482C69.2543 26.482 68.6783 27.076 68.6783 27.868Z" fill="black"/>
</svg>
